<?xml version="1.0" encoding="UTF-8"?>
<svg width="700pt" height="700pt" version="1.1" viewBox="0 0 700 700" xmlns="http://www.w3.org/2000/svg">
 <g>
  <path d="m157.5 105c0-9.6641 7.8359-17.5 17.5-17.5h17.5c9.6641 0 17.5 7.8359 17.5 17.5s-7.8359 17.5-17.5 17.5h-17.5c-9.6641 0-17.5-7.8359-17.5-17.5z"/>
  <path d="m245 87.5c-9.6641 0-17.5 7.8359-17.5 17.5s7.8359 17.5 17.5 17.5h17.5c9.6641 0 17.5-7.8359 17.5-17.5s-7.8359-17.5-17.5-17.5z"/>
  <path d="m417.8 350c-1.6562 6.4219-4.1953 12.488-7.4883 18.059l13.938 13.938c6.8359 6.8359 6.8359 17.914 0 24.75-6.8359 6.832-17.914 6.832-24.75 0l-13.938-13.938c-5.5703 3.293-11.637 5.832-18.059 7.4883v19.703c0 9.6641-7.8359 17.5-17.5 17.5s-17.5-7.8359-17.5-17.5v-19.703c-6.4219-1.6562-12.488-4.1953-18.059-7.4883l-13.938 13.938c-6.8359 6.8359-17.914 6.8359-24.75 0-6.8359-6.8359-6.8359-17.914 0-24.75l13.938-13.938c-3.293-5.5703-5.832-11.637-7.4883-18.059h-19.703c-9.6641 0-17.5-7.8359-17.5-17.5s7.8359-17.5 17.5-17.5h19.703c1.6562-6.4219 4.1953-12.488 7.4883-18.059l-13.938-13.941c-6.8359-6.832-6.8359-17.914 0-24.746 6.8359-6.8359 17.914-6.8359 24.75 0l13.938 13.938c5.5703-3.293 11.637-5.832 18.059-7.4883v-19.703c0-9.6641 7.8359-17.5 17.5-17.5s17.5 7.8359 17.5 17.5v19.703c6.4219 1.6562 12.488 4.1953 18.059 7.4883l13.938-13.938c6.8359-6.8359 17.914-6.8359 24.75 0 6.8359 6.8359 6.8359 17.914 0 24.75l-13.938 13.938c3.293 5.5703 5.832 11.637 7.4883 18.059h19.703c9.6641 0 17.5 7.8359 17.5 17.5s-7.8359 17.5-17.5 17.5zm-102.8-17.5c0-19.332 15.668-35 35-35s35 15.668 35 35c0 9.6211-3.8828 18.336-10.164 24.664l-0.17188 0.17188c-6.3281 6.2812-15.043 10.164-24.664 10.164-19.332 0-35-15.668-35-35z" fill-rule="evenodd"/>
  <path d="m105 87.5c0-28.996 23.504-52.5 52.5-52.5h385c28.996 0 52.5 23.504 52.5 52.5v385c0 28.996-23.504 52.5-52.5 52.5h-385c-28.996 0-52.5-23.504-52.5-52.5zm455 0v52.5h-420v-52.5c0-9.6641 7.8359-17.5 17.5-17.5h385c9.6641 0 17.5 7.8359 17.5 17.5zm0 87.5h-420v297.5c0 9.6641 7.8359 17.5 17.5 17.5h385c9.6641 0 17.5-7.8359 17.5-17.5z" fill-rule="evenodd"/>
 </g>
</svg>
