<svg width="80" height="80" viewBox="0 0 80 80" fill="none" xmlns="http://www.w3.org/2000/svg">
<path d="M63.0617 30.5772C63.1537 30.4482 63.2354 30.3115 63.2974 30.162L72.2639 8.61456C72.7086 7.53822 72.1956 6.29982 71.1224 5.85479L66.2367 3.82222C65.793 3.63472 65.2304 3.63159 64.7854 3.81508C64.3443 3.99723 63.9492 4.39098 63.7657 4.83159L54.7131 26.5882C54.6506 26.7373 54.6113 26.8908 54.584 27.0462C54.3702 27.3306 54.2358 27.6797 54.2215 28.0618L54.0099 33.5471L35.1345 12.5231C34.4702 11.7824 33.3319 11.7226 32.5921 12.386L24.0586 20.0472C23.7032 20.3659 23.489 20.8132 23.4631 21.29C23.4376 21.7668 23.6024 22.2342 23.9211 22.5891L57.2583 59.7217C57.5775 60.077 58.0243 60.2913 58.5011 60.3168C58.5333 60.319 58.5658 60.3194 58.598 60.3194C59.0408 60.3194 59.4694 60.1565 59.8006 59.8587L68.3341 52.1971C69.0738 51.5324 69.135 50.3945 68.4712 49.6547L57.3096 37.2227L62.5984 31.5478C62.8582 31.2687 63.0104 30.929 63.0609 30.5777L63.0617 30.5772ZM58.7358 55.9772L27.8032 21.5235L33.658 16.2677L35.7281 18.5735L34.6415 19.5494C33.9018 20.2141 33.8406 21.352 34.5049 22.0923C34.8607 22.4882 35.3518 22.6896 35.8455 22.6896C36.2736 22.6896 36.7039 22.5378 37.0478 22.2289L38.1344 21.2534L41.2357 24.7079L40.1491 25.6834C39.4089 26.3477 39.3478 27.486 40.0121 28.2258C40.3674 28.6222 40.859 28.8236 41.3526 28.8236C41.7808 28.8236 42.2107 28.6718 42.5545 28.3629L43.6411 27.3874L46.7424 30.8419L45.6558 31.8174C44.9161 32.4821 44.855 33.62 45.5188 34.3602C45.8746 34.7562 46.3657 34.958 46.8594 34.958C47.2875 34.958 47.7174 34.8053 48.0612 34.4968L49.1478 33.5214L52.2492 36.9759L51.1626 37.9514C50.4228 38.6161 50.3617 39.754 51.0255 40.4938C51.3813 40.8897 51.8724 41.0915 52.3661 41.0915C52.7942 41.0915 53.2241 40.9397 53.5679 40.6308L54.6545 39.6549L57.7559 43.1094L56.6693 44.0849C55.9295 44.7487 55.8675 45.8875 56.5322 46.6273C56.888 47.0233 57.3791 47.2251 57.8728 47.2251C58.3009 47.2251 58.7308 47.0733 59.0746 46.7643L60.1617 45.7885L64.5903 50.7215L58.7358 55.9772ZM66.4295 7.80231L68.3661 8.60812L60.5438 27.4058L58.6077 26.6L66.4295 7.80231ZM57.7447 30.1406L58.6398 30.5134L57.6907 31.5317L57.7447 30.1406Z" fill="black"/>
<path d="M10.7482 11.656C10.2107 11.0225 9.30939 10.8404 8.5679 11.2127C7.82549 11.5859 7.43486 12.4181 7.62237 13.227L18.013 58.1493C18.205 58.9805 18.9447 59.5439 19.7652 59.5439C19.8898 59.5439 20.0161 59.5314 20.1425 59.5046L43.6488 54.4917C44.2684 54.3596 44.7733 53.9109 44.9773 53.3109C45.1818 52.7109 45.0559 52.0484 44.6452 51.5654L10.7482 11.656ZM21.122 55.6137L12.7997 19.6332L16.4849 23.972L15.9925 24.3787C15.2256 25.0118 15.1171 26.1466 15.7501 26.9131C16.1064 27.3444 16.6211 27.5676 17.1398 27.5676C17.5429 27.5676 17.9492 27.4328 18.285 27.156L18.8171 26.7172L21.4724 29.8434L21.0184 30.2184C20.2514 30.8515 20.1429 31.9863 20.776 32.7528C21.1322 33.1841 21.647 33.4073 22.1657 33.4073C22.5688 33.4073 22.9751 33.2725 23.3108 32.9957L23.8041 32.5885L26.4599 35.7153L26.0434 36.059C25.2764 36.6921 25.1679 37.8265 25.801 38.5934C26.1572 39.0247 26.672 39.2475 27.1907 39.2475C27.5938 39.2475 28.0001 39.1126 28.3358 38.8354L28.7912 38.4595L31.447 41.5862L31.0689 41.8983C30.3023 42.5313 30.1939 43.6657 30.8269 44.4327C31.1827 44.8639 31.6974 45.0867 32.2161 45.0867C32.6197 45.0867 33.0255 44.9519 33.3613 44.6747L33.7782 44.3305L36.434 47.4572L36.0938 47.738C35.3273 48.3711 35.2188 49.5054 35.8519 50.2724C36.2077 50.7037 36.7224 50.9264 37.2411 50.9264C37.6447 50.9264 38.0505 50.7916 38.3863 50.5144L38.7648 50.2019L39.9506 51.5983L21.122 55.6137Z" fill="black"/>
<path d="M21.44 35.0515C20.9025 34.4184 20.0016 34.2349 19.2597 34.6086C18.5173 34.9814 18.1266 35.8135 18.3141 36.6229L21.5847 50.7623C21.7766 51.5936 22.5163 52.1574 23.3369 52.1574C23.4614 52.1574 23.5878 52.144 23.7141 52.1172L31.1123 50.5391C31.7324 50.4069 32.2368 49.9583 32.4413 49.3583C32.6458 48.7583 32.5194 48.0957 32.1092 47.6128L21.44 35.0515ZM24.6941 48.2263L23.4918 43.0286L27.4141 47.6464L24.6941 48.2263Z" fill="black"/>
</svg>
