<svg width="80" height="80" viewBox="0 0 80 80" fill="none" xmlns="http://www.w3.org/2000/svg">
<path d="M68 28H65.6611C65.3727 26.1366 64.8933 24.3398 64.2312 22.629L66.2486 21.4639C67.2053 20.9117 67.5329 19.6885 66.9807 18.7318L64.9807 15.2675C64.4285 14.3108 63.2053 13.9832 62.2486 14.5354L60.2383 15.6961C59.0704 14.2479 57.7517 12.9291 56.3035 11.7612L57.4641 9.75095C58.0164 8.79425 57.6887 7.57152 56.732 7.01883L53.2678 5.01883C52.3111 4.46661 51.0879 4.79429 50.5357 5.75097L49.3705 7.7688C47.6598 7.10674 45.863 6.62728 43.9995 6.33886V4C43.9995 2.89553 43.104 2 41.9995 2H37.9995C36.8951 2 35.9995 2.89553 35.9995 4V6.33886C34.1361 6.62725 32.3393 7.10672 30.6286 7.7688L29.4634 5.75097C28.9112 4.79427 27.688 4.46663 26.7313 5.01883L23.2671 7.01883C22.3104 7.57106 21.9827 8.79426 22.5349 9.75095L23.6956 11.7612C22.2474 12.9291 20.9287 14.2479 19.7608 15.6961L17.7505 14.5354C16.7938 13.9832 15.5706 14.3109 15.0184 15.2675L13.0184 18.7318C12.4661 19.6885 12.7938 20.9112 13.7505 21.4639L15.7679 22.629C15.1058 24.3398 14.6264 26.1366 14.3379 28H11.9991C10.8946 28 9.99908 28.8955 9.99908 30V34C9.99908 35.1045 10.8946 36 11.9991 36H14.3379C14.6263 37.8634 15.1058 39.6602 15.7679 41.371L13.7505 42.5361C12.7938 43.0883 12.4662 44.3115 13.0184 45.2682L15.0184 48.7325C15.5706 49.6892 16.7938 50.0168 17.7505 49.4646L19.7608 48.3039C20.9287 49.7521 22.2474 51.0709 23.6956 52.2388L22.5349 54.2491C21.9827 55.2058 22.3104 56.4289 23.2671 56.9812L26.7313 58.9812C27.688 59.5334 28.9112 59.2057 29.4634 58.249L30.6286 56.2317C32.3393 56.8937 34.1361 57.3732 35.9995 57.6616V60.0005C35.9995 61.1049 36.8951 62.0005 37.9995 62.0005H41.9995C43.104 62.0005 43.9995 61.1049 43.9995 60.0005V57.6616C45.863 57.3732 47.6598 56.8937 49.3705 56.2317L50.5357 58.249C51.0879 59.2057 52.3111 59.5334 53.2678 58.9812L56.732 56.9812C57.6887 56.4289 58.0163 55.2057 57.4641 54.2491L56.3035 52.2388C57.7517 51.0709 59.0704 49.7521 60.2383 48.3039L62.2486 49.4646C63.2053 50.0168 64.4285 49.6891 64.9807 48.7325L66.9807 45.2682C67.5329 44.3115 67.2053 43.0883 66.2486 42.5361L64.2312 41.371C64.8933 39.6602 65.3727 37.8634 65.6611 36H68C69.1045 36 70 35.1045 70 34V30C70 28.8955 69.1045 28 68 28ZM55.5383 42.4297L50.4307 47.5373C50.1379 47.8301 49.7548 47.9766 49.37 47.9766C48.9852 47.9766 48.6026 47.8301 48.3093 47.5373L41.491 40.719H37.2098C33.3835 40.719 29.788 39.2306 27.0848 36.5274C25.7253 35.168 24.7642 33.4475 24.3058 31.5489C23.8527 29.6721 23.9406 27.7011 24.5576 25.8458L25.366 23.4222C25.5321 22.9298 25.9401 22.557 26.446 22.4378C26.9477 22.3168 27.4812 22.469 27.85 22.836L34.8616 29.8477L37.1058 29.0936L37.8483 26.8611L30.8366 19.8494C30.4692 19.482 30.3169 18.9512 30.4384 18.4454C30.5576 17.9396 30.9308 17.5316 31.4228 17.3655L33.8464 16.557C37.6138 15.3013 41.7116 16.2682 44.5281 19.0842C47.2469 21.803 48.7352 25.4008 48.7197 29.2151V33.4905L55.538 40.3088C56.1241 40.895 56.1241 41.8441 55.538 42.4298L55.5383 42.4297Z" fill="black"/>
<path d="M45.7212 34.112V29.2097C45.7328 26.1941 44.5573 23.3544 42.4087 21.2057C40.4012 19.1982 37.4828 18.5067 34.797 19.4048L34.6761 19.4437L40.6274 25.3968C41.0296 25.799 41.1702 26.3928 40.9908 26.9321L39.7175 30.7527C39.5671 31.2 39.2175 31.5496 38.7702 31.7L34.9362 32.9871C34.3952 33.1688 33.8014 33.0259 33.3992 32.6255L27.4461 26.6742L27.4072 26.7952C26.9657 28.1157 26.9032 29.5162 27.2237 30.8438C27.5519 32.2054 28.2394 33.4376 29.2081 34.4064C31.3447 36.5429 34.1866 37.7188 37.2121 37.7188H42.1144C42.5126 37.7188 42.8934 37.8768 43.1751 38.1581L49.3725 44.3555L52.3591 41.3688L46.1617 35.1715C45.8805 34.8902 45.7224 34.5094 45.7224 34.1108L45.7212 34.112Z" fill="black"/>
</svg>
