<svg width="80" height="80" viewBox="0 0 80 80" fill="none" xmlns="http://www.w3.org/2000/svg">
<path d="M66.752 5.05579H13.248C11.2641 5.05579 9.59979 6.71967 9.59979 8.70402V55.296C9.59979 57.2799 11.2637 58.9443 13.248 58.9443H66.752C68.8003 58.9443 70.4003 57.2804 70.4003 55.296L70.3998 8.70402C70.3998 6.72013 68.7359 5.05579 66.7516 5.05579H66.752ZM27.904 9.72813H52.16C52.6721 9.72813 53.1198 10.1763 53.1198 10.6879C53.1198 11.2 52.6716 11.6478 52.16 11.6478L27.904 11.6482C27.392 11.6482 26.9442 11.2 26.9442 10.6884C26.9442 10.1759 27.3281 9.72813 27.904 9.72813ZM22.208 9.79197C22.7201 9.79197 23.1678 10.2402 23.1678 10.7518C23.1678 11.2638 22.7196 11.7116 22.208 11.7116C21.696 11.7116 21.2482 11.2634 21.2482 10.7518C21.2482 10.1759 21.696 9.79197 22.208 9.79197ZM19.008 9.79197C19.5201 9.79197 19.9678 10.2402 19.9678 10.7518C19.9678 11.2638 19.5196 11.7116 19.008 11.7116C18.496 11.7116 18.0482 11.2634 18.0482 10.7518C18.112 10.1759 18.496 9.79197 19.008 9.79197ZM15.808 9.79197C16.3201 9.79197 16.7678 10.2402 16.7678 10.7518C16.7678 11.2638 16.3196 11.7116 15.808 11.7116C15.296 11.7116 14.8482 11.2634 14.8482 10.7518C14.912 10.1759 15.296 9.79197 15.808 9.79197ZM66.88 53.696C66.88 54.6558 66.1122 55.4241 65.1519 55.4241H14.8479C13.8881 55.4241 13.1198 54.6562 13.1198 53.696V16.128H66.8798L66.88 53.696Z" fill="black"/>
<path d="M41.536 23.488H56.96C57.4082 23.488 57.856 23.1041 57.856 22.592C57.856 22.1438 57.472 21.696 56.96 21.696H41.536C41.0878 21.696 40.64 22.08 40.64 22.592C40.7039 23.1041 41.0878 23.488 41.536 23.488Z" fill="black"/>
<path d="M41.536 28.288H56.96C57.4082 28.288 57.856 27.9041 57.856 27.392C57.856 26.9438 57.472 26.496 56.96 26.496H41.536C41.0878 26.496 40.64 26.88 40.64 27.392C40.7039 27.9041 41.0878 28.288 41.536 28.288Z" fill="black"/>
<path d="M41.536 33.088H56.96C57.4082 33.088 57.856 32.7041 57.856 32.1921C57.856 31.7438 57.472 31.2961 56.96 31.2961H41.536C41.0878 31.2961 40.64 31.68 40.64 32.1921C40.7039 32.7041 41.0878 33.088 41.536 33.088Z" fill="black"/>
<path d="M24.64 33.792H35.0721C36.4164 33.792 37.5681 32.7041 37.5681 31.296L37.5677 23.5518C37.5677 22.2076 36.4798 21.0558 35.0717 21.0558H24.64C23.2958 21.0558 22.144 22.1437 22.144 23.5518V31.3598C22.144 32.704 23.232 33.7919 24.64 33.7919L24.64 33.792Z" fill="black"/>
<path d="M23.04 49.472H38.464C38.9122 49.472 39.36 49.0881 39.36 48.576C39.36 48.064 38.9761 47.6801 38.464 47.6801H23.04C22.528 47.6801 22.144 48.064 22.144 48.576C22.144 49.0881 22.528 49.472 23.04 49.472Z" fill="black"/>
<path d="M23.04 44.672H38.464C38.9122 44.672 39.36 44.2881 39.36 43.8399C39.36 43.3917 38.9761 42.9439 38.464 42.9439L23.04 42.9444C22.528 42.9444 22.144 43.3283 22.144 43.8403C22.144 44.3519 22.528 44.672 23.04 44.672Z" fill="black"/>
<path d="M23.04 39.872H38.464C38.9122 39.872 39.36 39.4881 39.36 38.9761C39.36 38.5278 38.9761 38.0801 38.464 38.0801H23.04C22.528 38.0801 22.144 38.464 22.144 38.9761C22.144 39.4881 22.528 39.872 23.04 39.872Z" fill="black"/>
<path d="M55.424 37.44H44.928C43.5838 37.44 42.432 38.5279 42.432 39.8721V47.6801C42.432 49.0243 43.5199 50.1761 44.928 50.1761H55.3601C56.7043 50.1761 57.8561 49.0882 57.8561 47.6801L57.8557 39.8717C57.8557 38.5279 56.7677 37.44 55.424 37.44Z" fill="black"/>
</svg>
