<svg width="32" height="37" viewBox="0 0 32 37" fill="none" xmlns="http://www.w3.org/2000/svg">
<g clip-path="url(#clip0)">
<path d="M4.57143 16H5.53571C7.3 20.0357 11.3143 22.8571 16 22.8571C20.6857 22.8571 24.7 20.0357 26.4643 16H27.4286C28.0571 16 28.5714 15.4857 28.5714 14.8571V8C28.5714 7.37143 28.0571 6.85714 27.4286 6.85714H26.4643C24.7 2.82143 20.6857 0 16 0C11.3143 0 7.3 2.82143 5.53571 6.85714H4.57143C3.94286 6.85714 3.42857 7.37143 3.42857 8V14.8571C3.42857 15.4857 3.94286 16 4.57143 16ZM7.42857 9.71429C7.42857 8.13571 8.96429 6.85714 10.8571 6.85714H21.1429C23.0357 6.85714 24.5714 8.13571 24.5714 9.71429V11.4286C24.5714 15.2143 21.5 18.2857 17.7143 18.2857H14.2857C10.5 18.2857 7.42857 15.2143 7.42857 11.4286V9.71429ZM12.5714 14.8571L13.4286 12.2857L16 11.4286L13.4286 10.5714L12.5714 8L11.7143 10.5714L9.14286 11.4286L11.7143 12.2857L12.5714 14.8571ZM23.4 22.9571C21.2643 24.3357 18.7286 25.1429 16 25.1429C13.2714 25.1429 10.7357 24.3357 8.6 22.9571C3.77857 23.4643 0 27.5 0 32.4571V33.1429C0 35.0357 1.53571 36.5714 3.42857 36.5714H9.14286V32C9.14286 30.7357 10.1643 29.7143 11.4286 29.7143H20.5714C21.8357 29.7143 22.8571 30.7357 22.8571 32V36.5714H28.5714C30.4643 36.5714 32 35.0357 32 33.1429V32.4571C32 27.5 28.2214 23.4643 23.4 22.9571ZM19.4286 32C18.8 32 18.2857 32.5143 18.2857 33.1429C18.2857 33.7714 18.8 34.2857 19.4286 34.2857C20.0571 34.2857 20.5714 33.7714 20.5714 33.1429C20.5714 32.5143 20.0571 32 19.4286 32ZM12.5714 32C11.9429 32 11.4286 32.5143 11.4286 33.1429V36.5714H13.7143V33.1429C13.7143 32.5143 13.2 32 12.5714 32Z" fill="#FAF8DD"/>
</g>
<defs>
<clipPath id="clip0">
<rect width="32" height="36.5714" fill="white"/>
</clipPath>
</defs>
</svg>
