<svg width="34" height="23" viewBox="0 0 34 23" fill="none" xmlns="http://www.w3.org/2000/svg">
<path d="M32.9707 21.448C32.9881 21.3942 33 21.3374 33 21.2776V1.55644C33 1.49631 32.9881 1.43914 32.9703 1.38494C32.9677 1.37752 32.9662 1.37009 32.9633 1.36267C32.9395 1.29919 32.9046 1.24203 32.8608 1.19191C32.8578 1.18857 32.8575 1.18449 32.8545 1.18115C32.8526 1.17929 32.8504 1.17855 32.8485 1.1767C32.8018 1.12695 32.7465 1.08686 32.6845 1.05679C32.6796 1.05457 32.6759 1.0516 32.6711 1.04937C32.6125 1.02301 32.5486 1.00817 32.4814 1.00371C32.4747 1.00334 32.4684 1.00186 32.4617 1.00186C32.4554 1.00148 32.4499 1 32.4436 1H1.55718C1.55087 1 1.54493 1.00148 1.53862 1.00186C1.53268 1.00223 1.52674 1.00334 1.5208 1.00371C1.45287 1.00817 1.38791 1.02339 1.32852 1.05011C1.32481 1.0516 1.32184 1.0542 1.31813 1.05568C1.25502 1.08575 1.19897 1.12658 1.15182 1.17707C1.14997 1.17892 1.14774 1.17929 1.14588 1.18115C1.14292 1.18412 1.14254 1.1882 1.13957 1.19154C1.09577 1.24166 1.06051 1.29919 1.03675 1.36267C1.03378 1.37009 1.0323 1.37752 1.0297 1.38531C1.01188 1.43951 1 1.49668 1 1.55681V21.2784C1 21.3392 1.01225 21.3971 1.03044 21.4521C1.03304 21.4595 1.03452 21.4666 1.03712 21.474C1.06125 21.5378 1.09689 21.5954 1.14106 21.6455C1.14366 21.6485 1.1444 21.6522 1.147 21.6551C1.14923 21.6577 1.1522 21.6592 1.15479 21.6618C1.17298 21.6807 1.19303 21.6975 1.21382 21.7138C1.2231 21.7208 1.23126 21.7294 1.24091 21.7361C1.26541 21.7531 1.29177 21.7669 1.31887 21.7795C1.32555 21.7825 1.33149 21.7873 1.33817 21.7899C1.40536 21.8185 1.47923 21.8348 1.55681 21.8348H32.4428C32.5204 21.8348 32.5943 21.8188 32.6615 21.7899C32.6719 21.7854 32.6815 21.7787 32.6915 21.7735C32.7145 21.762 32.7376 21.7502 32.7587 21.7357C32.7699 21.7279 32.7799 21.7179 32.7906 21.7093C32.8096 21.6941 32.8281 21.6789 32.8445 21.6614C32.8474 21.6585 32.8508 21.6562 32.8537 21.6533C32.8567 21.6499 32.8575 21.6455 32.8604 21.6421C32.9039 21.5924 32.9388 21.5352 32.9625 21.4721C32.9662 21.464 32.9681 21.4562 32.9707 21.448ZM2.114 2.81929L11.4859 11.3797L2.114 20.0085V2.81929ZM21.3225 10.9603C21.2839 10.9855 21.2431 11.0067 21.2108 11.0423C21.1985 11.0557 21.1945 11.0731 21.1837 11.0872L17.0002 14.9084L2.99227 2.11325H31.0081L21.3225 10.9603ZM12.3115 12.1336L16.6245 16.0733C16.7311 16.1705 16.8654 16.2192 17.0002 16.2192C17.1349 16.2192 17.2693 16.1705 17.3755 16.0733L21.6351 12.1826L31.0055 20.7212H2.98411L12.3115 12.1336ZM22.461 11.4283L31.8864 2.81929V20.0174L22.461 11.4283Z" stroke="#FAF8DD" stroke-width="2"/>
</svg>
