<svg width="32" height="30" viewBox="0 0 32 30" fill="none" xmlns="http://www.w3.org/2000/svg">
<path d="M2.66667 11.136C2.66667 13.6333 3.79867 15.06 4.91067 16.3933C4.952 17.7267 5.024 18.6173 4.46667 20.6373C6.79733 19.8933 7.184 19.6 8.47733 18.8053C9.81067 19.1307 10.4427 19.3133 11.9587 19.46C11.8333 20.404 11.8507 21.16 12.032 22.1573C11.0293 22.0773 9.99467 21.92 8.92533 21.6587C7.06267 22.8013 2.95067 23.9587 0.06 24.4787C1.14133 22.352 2.33733 19.432 2.27467 17.396C0.82 15.656 0 13.416 0 11.136C0 4.70133 6.292 0 13.3333 0C20.316 0 26.636 4.64533 26.664 11.0907C25.8053 10.8573 24.9013 10.7213 23.9693 10.672C23.664 6.21867 19.0187 2.66667 13.3333 2.66667C7.452 2.66667 2.66667 6.46667 2.66667 11.136ZM30.5107 24.6947C30.472 26.0293 31.2547 27.9413 31.9613 29.3333C30.0693 28.9893 27.3773 28.2347 26.1587 27.4867C25.1293 27.7373 24.14 27.852 23.208 27.852C18.0547 27.852 14.544 24.328 14.544 20.596C14.544 16.364 18.6907 13.3067 23.272 13.3067C27.8813 13.3067 32 16.3853 32 20.596C32 22.0893 31.4627 23.5573 30.5107 24.6947ZM22.9587 18.6667H20V21.6293H21.1853C21.1853 22.284 20.7227 23.0907 20.0027 23.3627L20.2973 24C21.8533 23.692 22.9587 22.5467 22.9587 20.856V18.6667ZM27.112 18.6667H24.1533V21.6293H25.3333C25.3333 22.284 24.8693 23.0907 24.1493 23.3627L24.4453 24C26.0013 23.692 27.112 22.5467 27.112 20.856V18.6667ZM17.0307 13.3333V9.63067H15.5493C15.5493 8.81067 16.128 7.80267 17.0267 7.464L16.66 6.66667C14.7147 7.052 13.3333 8.484 13.3333 10.5973V13.3333H17.0307ZM11.6973 13.3333V9.63067H10.224C10.224 8.81067 10.804 7.80267 11.7027 7.464L11.3333 6.66667C9.38933 7.052 8 8.484 8 10.5973V13.3333H11.6973Z" fill="#FAF8DD"/>
</svg>
